<?xml version="1.0" encoding="UTF-8" standalone="no"?>
<!-- Created with Inkscape (http://www.inkscape.org/) -->

<svg
   xmlns:dc="http://purl.org/dc/elements/1.1/"
   xmlns:cc="http://creativecommons.org/ns#"
   xmlns:rdf="http://www.w3.org/1999/02/22-rdf-syntax-ns#"
   xmlns:svg="http://www.w3.org/2000/svg"
   xmlns="http://www.w3.org/2000/svg"
   xmlns:sodipodi="http://sodipodi.sourceforge.net/DTD/sodipodi-0.dtd"
   xmlns:inkscape="http://www.inkscape.org/namespaces/inkscape"
   width="131.07906"
   height="161.87827"
   viewBox="0 0 34.681331 42.830292"
   version="1.1"
   id="svg1958"
   inkscape:version="0.92.2 (5c3e80d, 2017-08-06)"
   sodipodi:docname="grass.svg"
   inkscape:export-filename="C:\Users\olafu\Documents\Unity\Steamy\Assets\Images\grass.png"
   inkscape:export-xdpi="96"
   inkscape:export-ydpi="96">
  <defs
     id="defs1952" />
  <sodipodi:namedview
     id="base"
     pagecolor="#ffffff"
     bordercolor="#666666"
     borderopacity="1.0"
     inkscape:pageopacity="0.0"
     inkscape:pageshadow="2"
     inkscape:zoom="3.7937108"
     inkscape:cx="67.63575"
     inkscape:cy="109.88325"
     inkscape:document-units="px"
     inkscape:current-layer="layer1"
     showgrid="false"
     units="px"
     inkscape:window-width="2100"
     inkscape:window-height="1234"
     inkscape:window-x="-9"
     inkscape:window-y="17"
     inkscape:window-maximized="1"
     fit-margin-top="0"
     fit-margin-left="0"
     fit-margin-right="0"
     fit-margin-bottom="0" />
  <metadata
     id="metadata1955">
    <rdf:RDF>
      <cc:Work
         rdf:about="">
        <dc:format>image/svg+xml</dc:format>
        <dc:type
           rdf:resource="http://purl.org/dc/dcmitype/StillImage" />
        <dc:title></dc:title>
      </cc:Work>
    </rdf:RDF>
  </metadata>
  <g
     inkscape:label="Layer 1"
     inkscape:groupmode="layer"
     id="layer1"
     transform="translate(-18.779564,-253.82011)">
    <path
       style="fill:none;stroke:#000000;stroke-width:0.26458332px;stroke-linecap:butt;stroke-linejoin:miter;stroke-opacity:1"
       d="m -34.030859,215.95952 c 0,0 -2.657064,-29.84087 8.175582,-47.21398 0,0 2.248285,14.30727 -0.20439,45.78326"
       id="path828"
       inkscape:connector-curvature="0"
       sodipodi:nodetypes="ccc" />
    <path
       style="fill:none;stroke:#000000;stroke-width:0.26458332px;stroke-linecap:butt;stroke-linejoin:miter;stroke-opacity:1"
       d="m -26.059667,214.5288 c 0,0 2.657064,-33.51989 8.379971,-41.28669 0,0 3.781207,27.18381 1.226338,40.16255 0,0 1.328532,-23.09602 6.7448553,-29.63649"
       id="path830"
       inkscape:connector-curvature="0"
       sodipodi:nodetypes="cccc" />
    <path
       style="fill:none;stroke:#000000;stroke-width:0.26458332px;stroke-linecap:butt;stroke-linejoin:miter;stroke-opacity:1"
       d="m -9.7085027,183.76817 c 0,0 1.635116,24.11797 -0.3065853,30.96502 0,0 5.7229113,-24.52675 7.6646113,-36.89232 0,0 5.56961,13.18313 3.11693999,35.46159 0,0 2.50377001,-27.69478 9.24862971,-41.38888"
       id="path832"
       inkscape:connector-curvature="0"
       sodipodi:nodetypes="ccccc" />
    <path
       style="fill:none;stroke:#000000;stroke-width:0.26458332px;stroke-linecap:butt;stroke-linejoin:miter;stroke-opacity:1"
       d="m 10.015083,171.91358 c 0,0 3.27024,25.65089 0.40879,43.53497 0,0 -0.0957,-8.16054 4.52905,-13.79702"
       id="path834"
       inkscape:connector-curvature="0" />
    <path
       style="fill:none;stroke:#000000;stroke-width:0.26458332px;stroke-linecap:butt;stroke-linejoin:miter;stroke-opacity:1"
       d="m 14.952923,201.65153 c 0,0 1.1562,9.55036 0.5781,14.31969"
       id="path836"
       inkscape:connector-curvature="0"
       sodipodi:nodetypes="cc" />
    <path
       style="fill:none;stroke:#000000;stroke-width:0.26458332px;stroke-linecap:butt;stroke-linejoin:miter;stroke-opacity:1"
       d="m -34.030859,215.95952 49.561882,0.0117"
       id="path838"
       inkscape:connector-curvature="0"
       sodipodi:nodetypes="cc" />
    <path
       style="fill:#ffffff;fill-opacity:1;fill-rule:nonzero;stroke:none;stroke-width:0.10860309;stroke-linecap:butt;stroke-linejoin:miter;stroke-miterlimit:4;stroke-dasharray:none;stroke-dashoffset:0;stroke-opacity:0.92391304;paint-order:normal"
       d="m 24.40729,277.69052 c -0.09537,6.88811 0.209515,11.63391 -0.242941,17.51711 1.332811,-10.56997 4.515706,-22.98895 8.628939,-34.14229 -0.05375,8.27354 -1.786495,25.98051 -2.119786,33.92406 0.937062,-9.89929 2.954105,-21.25091 6.010534,-29.21389 1.537325,9.66162 -0.178329,18.24654 0.976822,26.23193 -0.270025,-11.1712 0.0264,-24.05446 2.655659,-31.87546 1.954346,7.87305 2.687844,27.42449 2.950676,33.70267 0.334325,-9.64735 0.328419,-29.81137 3.939715,-40.01454 2.996883,11.6274 2.964412,35.82445 2.971213,42.75105 -0.01575,-8.79741 -0.24616,-21.15817 1.916178,-28.7202 1.118363,4.46354 1.578323,21.52116 1.275694,28.79944 H 18.779564 c 0.930096,-7.35832 2.63611,-12.8062 5.627726,-18.95988 z"
       id="path842"
       inkscape:connector-curvature="0"
       sodipodi:nodetypes="cccccccccccccc" />
  </g>
</svg>
